<svg xmlns="http://www.w3.org/2000/svg" viewBox="0 0 28.35 25.15"><g id="Calque_2" data-name="Calque 2"><g id="Calque_1-2" data-name="Calque 1"><path d="M2.19,25.15c2.28-4.3,6.83-5.85,8.53-6.34V17.5h.65V10.28l1.54-.87V8.53l-1.32-.44V6.78l1.32-.44V5.25L11.59,5V4.16l1.32-.66-1.32-.66V2.19L0,11.37l2.41-.87L2.19,25.15" style="fill:#910075"/><polygon points="14.65 0 14.65 17.5 15.75 17.5 15.75 0.88 14.65 0"/><rect x="7" y="14.76" width="1.75" height="1.2" style="fill:#fff"/><rect x="4.96" y="14.76" width="1.75" height="1.2" style="fill:#fff"/><rect x="7" y="13.12" width="1.75" height="1.2" style="fill:snow"/><rect x="4.96" y="13.12" width="1.75" height="1.2" style="fill:snow"/><path d="M21.93,20.7l-.06-5.06L19,13.73l4.16,1.64-.05,6.17a12,12,0,0,1,3,3.61L26,10.5l2.4.87L16.76,2.18V17.34h.87v1.47a18.56,18.56,0,0,1,4.3,1.89"/><polygon points="4.96 2.84 4.96 6.56 8.31 4.16 8.31 2.84 4.96 2.84"/><path d="M8.31,23.43a15.54,15.54,0,0,0,3,.82,12.08,12.08,0,0,0,3.12.12,9,9,0,0,0,3-.81A8.74,8.74,0,0,0,20,21.76a7.64,7.64,0,0,1-2.47,2,8.84,8.84,0,0,1-3.06.89A11.86,11.86,0,0,1,8.31,23.43Z" style="fill:#650065"/></g></g></svg>