<svg xmlns="http://www.w3.org/2000/svg" viewBox="0 0 30.24 6.41"><defs><style>.cls-1,.cls-2{fill:#fff;stroke-miterlimit:10;stroke-width:0.25px;}.cls-1{stroke:#910075;}.cls-2{stroke:#000;}.cls-3{fill:#b40092;}</style></defs><g id="Calque_2" data-name="Calque 2"><g id="Calque_1-2" data-name="Calque 1"><path class="cls-1" d="M.12.34H4a2.3,2.3,0,0,1,1.56.5A1.62,1.62,0,0,1,6.1,2.1a1.48,1.48,0,0,1-.67,1.3A4.93,4.93,0,0,1,6.57,6.22H3.87a4.71,4.71,0,0,0-.33-1.64A.86.86,0,0,0,2.73,4V6.22H.12ZM2.73,1.55V2.68H2.8c.47,0,.7-.18.7-.55a.63.63,0,0,0-.14-.4.59.59,0,0,0-.48-.18Z"/><path d="M11.83,4.45v.82a2.66,2.66,0,0,1-2.25,1,2.76,2.76,0,0,1-1.94-.67A2.29,2.29,0,0,1,6.9,3.85a2.29,2.29,0,0,1,.68-1.71,2.39,2.39,0,0,1,1.75-.65,2.8,2.8,0,0,1,1,.18,2.17,2.17,0,0,1,.82.54,2.24,2.24,0,0,1,.5.84,3.51,3.51,0,0,1,.16,1.15H9.4a1.17,1.17,0,0,0,.44.56,1.31,1.31,0,0,0,.71.2A1.68,1.68,0,0,0,11.83,4.45ZM9.26,3.39h1.12a.94.94,0,0,0-.17-.54.5.5,0,0,0-.41-.2.52.52,0,0,0-.38.19A.8.8,0,0,0,9.26,3.39Z"/><path class="cls-1" d="M14.94,1.58v.58a2,2,0,0,1,1.44-.62A1.63,1.63,0,0,1,17.63,2a1.91,1.91,0,0,1,.43,1.34V6.22H15.81V3.52c0-.39-.15-.58-.44-.58a.77.77,0,0,0-.43.15V6.22H12.56V1.58Z"/><path class="cls-2" d="M22.62,1.58v1.3h-1v1c0,.33.15.5.45.5a.69.69,0,0,0,.57-.33V5.89a2.4,2.4,0,0,1-1.37.37,2.11,2.11,0,0,1-1.44-.51,1.74,1.74,0,0,1-.59-1.41V2.88h-1L21.63.26V1.58Z"/><path class="cls-1" d="M25.73,6.29a2.54,2.54,0,0,1-1.82-.67,2.23,2.23,0,0,1-.72-1.73,2.27,2.27,0,0,1,.71-1.73,2.83,2.83,0,0,1,3.66,0,2.27,2.27,0,0,1,.71,1.73,2.27,2.27,0,0,1-.71,1.73A2.53,2.53,0,0,1,25.73,6.29Zm0-3a.54.54,0,0,0-.38.14.52.52,0,0,0-.14.39.51.51,0,0,0,.14.38.5.5,0,0,0,.38.14.51.51,0,0,0,.38-.14.56.56,0,0,0,.14-.38.56.56,0,0,0-.14-.39A.51.51,0,0,0,25.73,3.32Z"/><circle class="cls-3" cx="29.53" cy="5.51" r="0.71"/></g></g></svg>